<svg width="125" height="71" viewBox="0 0 125 71" fill="none" xmlns="http://www.w3.org/2000/svg">
<g clip-path="url(#clip0_2510_10032)" filter="url(#filter0_ddd_2510_10032)">
<path d="M94.2156 53H14V25.033C14 17.2838 20.2891 11 28.0448 11H110.679V36.5502C110.679 45.6353 103.308 53 94.2156 53Z" fill="#7CD4F2"/>
<path d="M27.2736 29.7266L20.5273 38.1532L27.464 46.4428L27.2736 29.7266Z" fill="#60A3BA"/>
<path d="M42.5122 21.6406L24.8867 39.7157L38.8934 44.9528L42.5122 21.6406Z" fill="#60A3BA"/>
<path d="M24.8858 43.8389L33.0605 48.566C33.3538 48.6269 33.9785 48.6041 34.2414 48.4595L43.1056 47.508C43.4027 47.3405 51.905 38.3467 51.9926 38.0156L52.5563 27.7506C52.7011 27.1835 52.4268 26.5898 51.9011 26.331L43.7188 21.5848C43.1055 21.2841 42.3627 21.5315 42.058 22.1443L37.1517 31.9906C36.8583 32.5805 36.1574 32.8356 35.5518 32.5805L28.497 29.5852C27.8456 29.3073 27.099 29.6308 26.8476 30.2893L23.9754 42.1871C23.7049 42.9026 24.1392 43.6867 24.8858 43.8427V43.8389Z" fill="#F4DC4D"/>
<path d="M36.4695 14.8398C26.8244 14.8398 19.0078 22.6537 19.0078 32.2869C19.0078 41.92 26.8282 49.7339 36.4695 49.7339C46.1108 49.7339 53.9312 41.92 53.9312 32.2869C53.9312 22.6537 46.1146 14.8398 36.4695 14.8398ZM36.4695 47.5074C28.0586 47.5074 21.2362 40.6945 21.2362 32.2869C21.2362 23.8793 28.0586 17.0702 36.4695 17.0702C44.8804 17.0702 51.7028 23.8831 51.7028 32.2907C51.7028 40.6983 44.8842 47.5112 36.4695 47.5112V47.5074Z" fill="#70C0D6"/>
<path d="M60.3667 17.7339V26.229H59.86V17.7339H56.6641V17.2695H63.5665V17.7339H60.3667Z" fill="white"/>
<path d="M70.9034 26.229V21.7341H65.2391V26.229H64.7324V17.2695H65.2391V21.2697H70.9034V17.2695H71.4101V26.229H70.9034Z" fill="white"/>
<path d="M73.4141 26.229V17.2695H78.1795V17.7339H73.9207V21.2887H77.4328V21.7531H73.9207V25.7685H78.1795V26.2328H73.4141V26.229Z" fill="white"/>
<path d="M72.9312 46.1555V35.8524C72.9312 35.4604 73.015 34.3681 73.0417 34.2577L72.4246 35.8524L67.9144 46.1555H65.8117L61.3015 35.8524C61.1339 35.4604 60.7682 34.4252 60.7149 34.2577C60.7149 34.3414 60.7987 35.4604 60.7987 35.8524V46.1555H57.8008V29.3555H61.4424L66.9925 41.6453L72.5122 29.3555H76.0434V46.1555H72.9312Z" fill="white"/>
<path d="M79.3773 46.379C78.3145 46.379 77.4727 45.5379 77.4727 44.476C77.4727 43.4141 78.3145 42.5996 79.3773 42.5996C80.4401 42.5996 81.2819 43.4408 81.2819 44.476C81.2819 45.5113 80.4401 46.379 79.3773 46.379Z" fill="white"/>
<path d="M89.9131 46.6304C84.7554 46.6304 80.748 42.9081 80.748 37.7547C80.748 32.6012 84.7554 28.8789 89.9131 28.8789C95.0709 28.8789 98.9906 32.6012 98.9906 37.7547C98.9906 42.9081 95.0404 46.6304 89.9131 46.6304ZM89.9131 31.5964C86.5496 31.5964 84.3364 34.1161 84.3364 37.7547C84.3364 41.3933 86.5496 43.9129 89.9131 43.9129C93.2767 43.9129 95.4061 41.3933 95.4061 37.7547C95.4061 34.1161 93.2196 31.5964 89.9131 31.5964Z" fill="white"/>
<path d="M100.114 46.379C99.047 46.379 98.209 45.5379 98.209 44.476C98.209 43.4141 99.0508 42.5996 100.114 42.5996C101.176 42.5996 102.018 43.4408 102.018 44.476C102.018 45.5113 101.176 46.379 100.114 46.379Z" fill="white"/>
</g>
<defs>
<filter id="filter0_ddd_2510_10032" x="0" y="0" width="124.68" height="71" filterUnits="userSpaceOnUse" color-interpolation-filters="sRGB">
<feFlood flood-opacity="0" result="BackgroundImageFix"/>
<feColorMatrix in="SourceAlpha" type="matrix" values="0 0 0 0 0 0 0 0 0 0 0 0 0 0 0 0 0 0 127 0" result="hardAlpha"/>
<feOffset dy="5"/>
<feGaussianBlur stdDeviation="2.5"/>
<feColorMatrix type="matrix" values="0 0 0 0 0 0 0 0 0 0 0 0 0 0 0 0 0 0 0.2 0"/>
<feBlend mode="normal" in2="BackgroundImageFix" result="effect1_dropShadow_2510_10032"/>
<feColorMatrix in="SourceAlpha" type="matrix" values="0 0 0 0 0 0 0 0 0 0 0 0 0 0 0 0 0 0 127 0" result="hardAlpha"/>
<feOffset dy="3"/>
<feGaussianBlur stdDeviation="7"/>
<feColorMatrix type="matrix" values="0 0 0 0 0 0 0 0 0 0 0 0 0 0 0 0 0 0 0.12 0"/>
<feBlend mode="normal" in2="effect1_dropShadow_2510_10032" result="effect2_dropShadow_2510_10032"/>
<feColorMatrix in="SourceAlpha" type="matrix" values="0 0 0 0 0 0 0 0 0 0 0 0 0 0 0 0 0 0 127 0" result="hardAlpha"/>
<feOffset dy="8"/>
<feGaussianBlur stdDeviation="5"/>
<feColorMatrix type="matrix" values="0 0 0 0 0 0 0 0 0 0 0 0 0 0 0 0 0 0 0.14 0"/>
<feBlend mode="normal" in2="effect2_dropShadow_2510_10032" result="effect3_dropShadow_2510_10032"/>
<feBlend mode="normal" in="SourceGraphic" in2="effect3_dropShadow_2510_10032" result="shape"/>
</filter>
<clipPath id="clip0_2510_10032">
<rect width="96.6792" height="42" fill="white" transform="translate(14 11)"/>
</clipPath>
</defs>
</svg>
